<svg id="OBJECTS" xmlns="http://www.w3.org/2000/svg" xmlns:xlink="http://www.w3.org/1999/xlink" viewBox="0 0 325.85 325.85"><defs><style>.cls-1,.cls-2,.cls-3,.cls-4,.cls-5,.cls-6,.cls-7,.cls-8,.cls-9{fill:none;stroke-miterlimit:10;}.cls-1{stroke-width:6px;stroke:url(#linear-gradient);}.cls-2,.cls-3,.cls-4,.cls-5,.cls-6,.cls-7,.cls-8,.cls-9{stroke-linecap:round;}.cls-2{stroke:url(#linear-gradient-2);}.cls-3,.cls-5,.cls-7,.cls-9{stroke-dasharray:3.03 4.04;}.cls-3{stroke:url(#linear-gradient-3);}.cls-4{stroke:url(#linear-gradient-4);}.cls-5{stroke:url(#linear-gradient-5);}.cls-6{stroke:url(#linear-gradient-6);}.cls-7{stroke:url(#linear-gradient-7);}.cls-8{stroke:url(#linear-gradient-8);}.cls-9{stroke:url(#linear-gradient-9);}</style><linearGradient id="linear-gradient" x1="162.93" x2="162.93" y2="325.85" gradientUnits="userSpaceOnUse"><stop offset="0" stop-color="#a6773e"/><stop offset="0.11" stop-color="#caa355"/><stop offset="0.24" stop-color="#f0d16e"/><stop offset="0.31" stop-color="#ffe377"/><stop offset="0.37" stop-color="#f7d972"/><stop offset="0.48" stop-color="#e1bf64"/><stop offset="0.62" stop-color="#be944d"/><stop offset="0.7" stop-color="#a6773e"/><stop offset="1" stop-color="#dab65f"/></linearGradient><linearGradient id="linear-gradient-2" x1="10.37" y1="314.23" x2="315.48" y2="314.23" gradientUnits="userSpaceOnUse"><stop offset="0" stop-color="#a6773e"/><stop offset="0.2" stop-color="#caa355"/><stop offset="0.45" stop-color="#f0d16e"/><stop offset="0.57" stop-color="#ffe377"/><stop offset="0.64" stop-color="#f7d972"/><stop offset="0.76" stop-color="#e1bf64"/><stop offset="0.91" stop-color="#be944d"/><stop offset="1" stop-color="#a6773e"/></linearGradient><linearGradient id="linear-gradient-3" x1="10.37" y1="314.98" x2="315.48" y2="314.98" xlink:href="#linear-gradient-2"/><linearGradient id="linear-gradient-4" x1="10.37" y1="314.23" x2="315.49" y2="314.23" xlink:href="#linear-gradient-2"/><linearGradient id="linear-gradient-5" x1="10.37" y1="161.92" x2="315.48" y2="161.92" xlink:href="#linear-gradient-2"/><linearGradient id="linear-gradient-6" x1="10.37" y1="11.62" x2="315.49" y2="11.62" xlink:href="#linear-gradient-2"/><linearGradient id="linear-gradient-7" x1="10.37" y1="10.87" x2="315.48" y2="10.87" xlink:href="#linear-gradient-2"/><linearGradient id="linear-gradient-8" x1="10.37" y1="11.62" x2="315.48" y2="11.62" xlink:href="#linear-gradient-2"/><linearGradient id="linear-gradient-9" x1="10.37" y1="163.94" x2="315.48" y2="163.94" xlink:href="#linear-gradient-2"/></defs><rect class="cls-1" x="3" y="3" width="319.85" height="319.85"/><polyline class="cls-2" points="314.99 313.49 314.99 314.99 313.49 314.99"/><line class="cls-3" x1="309.44" y1="314.98" x2="14.39" y2="314.98"/><polyline class="cls-4" points="12.37 314.99 10.87 314.99 10.87 313.49"/><line class="cls-5" x1="10.87" y1="309.44" x2="10.87" y2="14.39"/><polyline class="cls-6" points="10.87 12.37 10.87 10.87 12.37 10.87"/><line class="cls-7" x1="16.41" y1="10.87" x2="311.46" y2="10.87"/><polyline class="cls-8" points="313.49 10.87 314.99 10.87 314.99 12.37"/><line class="cls-9" x1="314.98" y1="16.41" x2="314.98" y2="311.46"/></svg>